<svg width="120" height="120" viewBox="0 0 120 120" xmlns="http://www.w3.org/2000/svg">
  <defs>
    <linearGradient id="uaicpGradient" x1="0%" y1="0%" x2="100%" y2="100%">
      <stop offset="0%" style="stop-color:#4ECDC4;stop-opacity:1" />
      <stop offset="30%" style="stop-color:#667eea;stop-opacity:1" />
      <stop offset="70%" style="stop-color:#764ba2;stop-opacity:1" />
      <stop offset="100%" style="stop-color:#8B5CF6;stop-opacity:1" />
    </linearGradient>
  </defs>
  
  <!-- Main interlocking U shapes representing the UAICP logo -->
  <!-- Left U shape -->
  <path d="M 20 25 
           L 20 65
           Q 20 85, 40 85
           Q 60 85, 60 65
           L 60 45" 
        stroke="url(#uaicpGradient)" 
        stroke-width="12" 
        fill="none" 
        stroke-linecap="round" 
        stroke-linejoin="round"/>
  
  <!-- Right interlocking curve -->
  <path d="M 60 35
           Q 60 15, 80 15
           Q 100 15, 100 35
           L 100 55
           Q 100 75, 80 75
           Q 60 75, 60 55" 
        stroke="url(#uaicpGradient)" 
        stroke-width="12" 
        fill="none" 
        stroke-linecap="round" 
        stroke-linejoin="round"/>
  
  <!-- Connection nodes/dots -->
  <circle cx="20" cy="20" r="6" fill="url(#uaicpGradient)"/>
  <circle cx="60" cy="40" r="6" fill="url(#uaicpGradient)"/>
  <circle cx="100" cy="30" r="6" fill="url(#uaicpGradient)"/>
  <circle cx="80" cy="80" r="6" fill="url(#uaicpGradient)"/>
  
  <!-- Connecting lines to show network/protocol concept -->
  <line x1="26" y1="20" x2="54" y2="40" stroke="url(#uaicpGradient)" stroke-width="4" stroke-linecap="round" opacity="0.7"/>
  <line x1="66" y1="40" x2="94" y2="30" stroke="url(#uaicpGradient)" stroke-width="4" stroke-linecap="round" opacity="0.7"/>
  <line x1="74" y1="80" x2="60" y2="60" stroke="url(#uaicpGradient)" stroke-width="4" stroke-linecap="round" opacity="0.7"/>
</svg>